<svg id="Capa_1" enable-background="new 0 0 512 512" height="512" viewBox="0 0 512 512" width="512" xmlns="http://www.w3.org/2000/svg"><g><g><path d="m403.118 41.273c0-17.272-14.002-31.273-31.273-31.273h-231.689c-17.272 0-31.273 14.001-31.273 31.273v235.227h294.235zm-200.734 167.761c-30.055-1.142-54.545-25.631-55.686-55.687-1.255-33.055 25.17-60.248 57.946-60.248v57.989h57.988c0 32.777-27.192 59.201-60.248 57.946zm37.841-92.17v-57.989c32.026 0 57.988 25.962 57.988 57.989z" fill="#fff"/><path d="m415.772 276.5h-12.655-294.235-12.654c-11.662 0-21.116 9.454-21.116 21.116v27.119h33.771 62.698 42.206 84.428 42.206 62.698 33.771v-27.119c-.001-11.662-9.455-21.116-21.118-21.116z" fill="#fff398"/><path d="m129.374 502h42.206l42.206-177.265h-42.206z" fill="#fff7ba"/><path d="m340.42 502h42.206l-42.206-177.265h-42.206z" fill="#fff7ba"/><path d="m240.225 58.875v57.989h57.988c.001-32.026-25.961-57.989-57.988-57.989z" fill="#fff398"/><path d="m204.644 93.1c-32.776 0-59.201 27.192-57.946 60.248 1.141 30.055 25.631 54.545 55.686 55.687 33.056 1.255 60.248-25.169 60.248-57.946h-57.988z" fill="#9593e6"/></g><g><path d="m454.971 492h-64.447l-37.444-157.265h83.808c5.523 0 10-4.478 10-10v-27.119c0-17.157-13.958-31.116-31.116-31.116h-2.655v-225.227c.001-22.757-18.514-41.273-41.273-41.273h-231.688c-22.758 0-41.273 18.516-41.273 41.273v225.227h-2.655c-17.158 0-31.116 13.959-31.116 31.116v27.119c0 5.522 4.477 10 10 10h83.808l-37.444 157.265h-64.447c-5.523 0-10 4.478-10 10s4.477 10 10 10h397.941c5.523 0 10-4.478 10-10s-4.476-10-9.999-10zm-369.86-177.265v-17.119c0-6.13 4.987-11.116 11.116-11.116h36.773c5.523 0 10-4.478 10-10s-4.477-10-10-10h-14.118v-225.227c0-11.73 9.543-21.273 21.273-21.273h231.688c11.73 0 21.273 9.543 21.273 21.273v225.227h-180.116c-5.523 0-10 4.478-10 10s4.477 10 10 10h202.772c6.129 0 11.116 4.986 11.116 11.116v17.119c-99.174 0-233.201 0-341.777 0zm78.571 177.265h-21.646l37.443-157.265h21.647zm20.559 0 37.444-157.265h68.63l37.444 157.265zm164.077 0-37.444-157.265h21.647l37.444 157.265z"/><path d="m240.226 126.864h57.988c5.523 0 10-4.478 10-10 0-37.489-30.5-67.988-67.988-67.988-5.523 0-10 4.478-10 10v57.988c0 5.523 4.477 10 10 10zm10-56.94c18.45 3.927 33.014 18.49 36.94 36.94h-36.94z"/><path d="m251.792 200.072c13.439-12.938 20.84-30.334 20.84-48.984 0-5.522-4.477-10-10-10h-47.988v-47.988c0-5.522-4.477-10-10-10-38.532 0-69.41 31.908-67.938 70.628 2.213 58.3 72.883 86.975 115.086 46.344zm-95.101-47.104c-.501-13.191 4.25-25.677 13.377-35.157 6.77-7.032 15.269-11.723 24.576-13.679v46.956c0 5.522 4.477 10 10 10h46.956c-1.956 9.307-6.646 17.806-13.678 24.576-29.848 28.735-79.672 8.362-81.231-32.696z"/><path d="m304.485 157.721c0 5.522 4.477 10 10 10h47.029c5.523 0 10-4.478 10-10s-4.477-10-10-10h-47.029c-5.523 0-10 4.477-10 10z"/><path d="m361.515 186.309h-63.301c-5.523 0-10 4.478-10 10s4.477 10 10 10h63.301c5.523 0 10-4.478 10-10s-4.477-10-10-10z"/><path d="m361.515 224.897h-87.052c-5.523 0-10 4.478-10 10s4.477 10 10 10h87.052c5.523 0 10-4.478 10-10s-4.477-10-10-10z"/><path d="m183.025 276.5c0-5.522-4.477-10-10-10h-.025c-5.523 0-9.988 4.478-9.988 10s4.49 10 10.013 10 10-4.478 10-10z"/></g></g></svg>