<!-- Generator: Adobe Illustrator 19.0.0, SVG Export Plug-In . SVG Version: 6.00 Build 0)  -->
<svg version="1.1" id="Capa_1" xmlns="http://www.w3.org/2000/svg" xmlns:xlink="http://www.w3.org/1999/xlink" x="0px" y="0px"
	 viewBox="0 0 433.633 433.633" style="enable-background:new 0 0 433.633 433.633;" xml:space="preserve">
<g>
	<g>
		<polygon style="fill:#00EFD1;" points="361.012,210.808 433.633,155.429 433.633,402.547 431.543,402.547 260.702,287.608 		"/>
		<polygon style="fill:#00ACEA;" points="433.633,154.384 433.633,155.429 361.012,210.808 361.012,105.796 363.102,105.796 		"/>
		<polygon style="fill:#00CEB4;" points="431.543,402.547 2.09,402.547 171.363,289.176 172.408,287.608 216.816,321.567 
			260.702,287.608 		"/>
		<polygon style="fill:#D4E1F4;" points="72.62,104.229 72.62,31.086 361.012,31.086 361.012,105.796 361.012,210.808 
			260.702,287.608 216.816,321.567 172.408,287.608 72.62,210.808 		"/>
		<polygon style="fill:#00EFD1;" points="72.62,210.808 172.408,287.608 171.363,289.176 2.09,402.547 0,402.547 0,155.429 		"/>
		<polygon style="fill:#00ACEA;" points="72.62,104.229 72.62,210.808 0,155.429 0,154.384 		"/>
	</g>
	<g>
		<path style="fill:#083863;" d="M180.245,107.363h-47.02c-5.771,0-10.449-4.678-10.449-10.449c0-5.771,4.678-10.449,10.449-10.449
			h47.02c5.771,0,10.449,4.678,10.449,10.449C190.694,102.685,186.016,107.363,180.245,107.363z"/>
		<path style="fill:#083863;" d="M300.408,154.384H133.224c-5.771,0-10.449-4.678-10.449-10.449s4.678-10.449,10.449-10.449h167.184
			c5.771,0,10.449,4.678,10.449,10.449S306.179,154.384,300.408,154.384z"/>
		<path style="fill:#083863;" d="M300.408,201.404H133.224c-5.771,0-10.449-4.678-10.449-10.449c0-5.771,4.678-10.449,10.449-10.449
			h167.184c5.771,0,10.449,4.678,10.449,10.449C310.857,196.726,306.179,201.404,300.408,201.404z"/>
	</g>
</g>
<g>
</g>
<g>
</g>
<g>
</g>
<g>
</g>
<g>
</g>
<g>
</g>
<g>
</g>
<g>
</g>
<g>
</g>
<g>
</g>
<g>
</g>
<g>
</g>
<g>
</g>
<g>
</g>
<g>
</g>
</svg>
